<svg xmlns="http://www.w3.org/2000/svg" xmlns:xlink="http://www.w3.org/1999/xlink" version="1.1" class="marks" width="739" height="518" viewBox="0 0 739 518"><rect x="0" y="0" width="739" height="518" fill="#000" stroke="none" role="presentation" aria-hidden="true" data-vega-export-background="true"/><g role="presentation" transform="translate(0, 24)"><g transform="translate(32, 0)"><text x="0" y="0" fill="#fff" font-family="OpenAI Sans, OpenAI Sans Variable Scripts, sans-serif" font-size="16" font-weight="bold" dominant-baseline="text-before-edge" text-anchor="start"><tspan x="0" dy="0">Agents' Last Exam</tspan></text></g><g role="presentation" aria-hidden="true" focusable="false" transform="translate(687, 0) scale(0.1282051282051282)"><path d="M59.733 56.192v-14.57c0-1.227.46-2.148 1.533-2.76l29.293-16.87c3.988-2.3 8.742-3.374 13.649-3.374 18.404 0 30.06 14.263 30.06 29.446 0 1.073 0 2.3-.154 3.527l-30.366-17.79q-2.76-1.611-5.521 0zm68.4 56.745V78.122c0-2.147-.921-3.681-2.761-4.754L86.878 50.977l12.576-7.209c1.073-.613 1.994-.613 3.067 0l29.293 16.87c8.436 4.908 14.109 15.337 14.109 25.458 0 11.655-6.9 22.391-17.79 26.839zM50.684 82.264l-12.576-7.361c-1.073-.613-1.533-1.534-1.533-2.76v-33.74c0-16.41 12.576-28.833 29.6-28.833 6.441 0 12.421 2.147 17.484 5.981L53.446 33.035c-1.84 1.073-2.76 2.607-2.76 4.755v44.475zm27.07 15.643L59.731 87.785v-21.47l18.021-10.122 18.02 10.122v21.47zm11.578 46.623c-6.442 0-12.422-2.148-17.484-5.981l30.212-17.485c1.84-1.073 2.761-2.606 2.761-4.754V71.834l12.73 7.361c1.073.613 1.533 1.534 1.533 2.761v33.74c0 16.409-12.73 28.833-29.752 28.833zm-36.348-34.2L23.691 93.46c-8.436-4.908-14.11-15.336-14.11-25.458 0-11.809 7.056-22.391 17.944-26.839V76.13c0 2.148.92 3.681 2.76 4.754l38.342 22.237-12.576 7.209c-1.073.613-1.994.613-3.067 0m-1.686 25.152c-17.33 0-30.06-13.037-30.06-29.14 0-1.227.154-2.454.307-3.681l30.212 17.484q2.761 1.61 5.521 0l38.494-22.237v14.57c0 1.227-.46 2.147-1.533 2.76l-29.293 16.87c-3.988 2.3-8.742 3.374-13.65 3.374zm38.034 18.249c18.557 0 34.046-13.189 37.575-30.673 17.176-4.448 28.219-20.551 28.219-36.96 0-10.736-4.601-21.164-12.883-28.68.767-3.22 1.228-6.441 1.228-9.66 0-21.931-17.791-38.342-38.342-38.342-4.14 0-8.128.612-12.116 1.993C86.111 4.661 76.603.367 66.174.367 47.617.367 32.128 13.556 28.6 31.04 11.423 35.488.381 51.59.381 68c0 10.737 4.6 21.165 12.882 28.68-.767 3.22-1.227 6.441-1.227 9.661 0 21.93 17.79 38.341 38.342 38.341 4.14 0 8.127-.612 12.115-1.993 6.9 6.748 16.41 11.042 26.84 11.042" fill="#fff"/></g></g><g transform="translate(32, 68)"><g fill="none" stroke-miterlimit="10" transform="translate(76,85)"><g class="mark-group role-frame root" role="graphics-object" aria-roledescription="group mark container"><g transform="translate(0,0)"><path class="background" aria-hidden="true" d="M0.5,0.5h583v312h-583Z"/><g><g class="mark-group role-axis" role="graphics-symbol" aria-roledescription="axis" aria-label="X-axis for a linear scale with values from 0 to 25,000,000"><g transform="translate(0.5,312.5)"><path class="background" aria-hidden="true" d="M0,0h0v0h0Z" pointer-events="none"/><g><g class="mark-rule role-axis-tick" pointer-events="none"><line transform="translate(0,0)" x2="0" y2="5" stroke="#fff" stroke-width="1" opacity="1"/><line transform="translate(117,0)" x2="0" y2="5" stroke="#fff" stroke-width="1" opacity="1"/><line transform="translate(233,0)" x2="0" y2="5" stroke="#fff" stroke-width="1" opacity="1"/><line transform="translate(350,0)" x2="0" y2="5" stroke="#fff" stroke-width="1" opacity="1"/><line transform="translate(466,0)" x2="0" y2="5" stroke="#fff" stroke-width="1" opacity="1"/><line transform="translate(583,0)" x2="0" y2="5" stroke="#fff" stroke-width="1" opacity="1"/></g><g class="mark-text role-axis-label" pointer-events="none"><text text-anchor="middle" transform="translate(0,24)" font-family="SF Mono, monospace" font-size="12px" font-weight="normal" fill="#fff" opacity="1">0M</text><text text-anchor="middle" transform="translate(116.60000000000001,24)" font-family="SF Mono, monospace" font-size="12px" font-weight="normal" fill="#fff" opacity="1">5M</text><text text-anchor="middle" transform="translate(233.20000000000002,24)" font-family="SF Mono, monospace" font-size="12px" font-weight="normal" fill="#fff" opacity="1">10M</text><text text-anchor="middle" transform="translate(349.8,24)" font-family="SF Mono, monospace" font-size="12px" font-weight="normal" fill="#fff" opacity="1">15M</text><text text-anchor="middle" transform="translate(466.40000000000003,24)" font-family="SF Mono, monospace" font-size="12px" font-weight="normal" fill="#fff" opacity="1">20M</text><text text-anchor="middle" transform="translate(583,24)" font-family="SF Mono, monospace" font-size="12px" font-weight="normal" fill="#fff" opacity="1">25M</text></g><g class="mark-rule role-axis-domain" pointer-events="none"><line transform="translate(0,0)" x2="583" y2="0" stroke="#fff" stroke-width="1" opacity="1"/></g></g><path class="foreground" aria-hidden="true" d="" pointer-events="none" display="none"/></g></g><g class="mark-group role-axis" role="graphics-symbol" aria-roledescription="axis" aria-label="Y-axis titled 'Score' for a linear scale with values from 29% to 55%"><g transform="translate(0.5,0.5)"><path class="background" aria-hidden="true" d="M0,0h0v0h0Z" pointer-events="none"/><g><g class="mark-rule role-axis-tick" pointer-events="none"><line transform="translate(0,299)" x2="-5" y2="0" stroke="#fff" stroke-width="1" opacity="1"/><line transform="translate(0,181)" x2="-5" y2="0" stroke="#fff" stroke-width="1" opacity="1"/><line transform="translate(0,64)" x2="-5" y2="0" stroke="#fff" stroke-width="1" opacity="1"/></g><g class="mark-text role-axis-label" pointer-events="none"><text text-anchor="end" transform="translate(-15,302.7044119861467)" font-family="SF Mono, monospace" font-size="12px" font-weight="normal" fill="#fff" opacity="1">30%</text><text text-anchor="end" transform="translate(-15,185.2522210510465)" font-family="SF Mono, monospace" font-size="12px" font-weight="normal" fill="#fff" opacity="1">40%</text><text text-anchor="end" transform="translate(-15,67.80003011594644)" font-family="SF Mono, monospace" font-size="12px" font-weight="normal" fill="#fff" opacity="1">50%</text></g><g class="mark-rule role-axis-domain" pointer-events="none"><line transform="translate(0,312)" x2="0" y2="-312" stroke="#fff" stroke-width="1" opacity="1"/></g><g class="mark-text role-axis-title" pointer-events="none"><text text-anchor="middle" transform="translate(-56.673828125,156) rotate(-90) translate(0,-3)" font-family="OpenAI Sans, OpenAI Sans Variable Scripts, sans-serif" font-size="14px" font-weight="normal" fill="#fff" opacity="1">Score</text></g></g><path class="foreground" aria-hidden="true" d="" pointer-events="none" display="none"/></g></g><g class="mark-group role-scope layer_0_layer_0_pathgroup" role="graphics-object" aria-roledescription="group mark container"/><g class="mark-group role-scope layer_1_layer_0_pathgroup" role="graphics-object" aria-roledescription="group mark container"/><g class="mark-group role-scope layer_2_layer_0_pathgroup" role="graphics-object" aria-roledescription="group mark container"><g transform="translate(0,0)"><path class="background" aria-hidden="true" d="M0,0h583v312h-583Z"/><g><g class="mark-line role-mark layer_2_layer_0_marks" role="graphics-object" aria-roledescription="line mark container"><path aria-label="x_value: 9440000; score: 0.41; model: Claude Fable 5; juice_index: 7; Model: Claude Fable 5; Effort Level: Adaptive; Output tokens: 9.44M; Score: 40.5%" role="graphics-symbol" aria-roledescription="line mark" d="M220.141,175.38Z" stroke="#ffedde" stroke-width="2"/></g><g class="mark-symbol role-mark layer_2_layer_1_marks" role="graphics-object" aria-roledescription="symbol mark container"><path aria-label="x_value: 9440000; score: 0.41; model: Claude Fable 5; juice_index: 7; Model: Claude Fable 5; Effort Level: Adaptive; Output tokens: 9.44M; Score: 40.5%" role="graphics-symbol" aria-roledescription="point" transform="translate(220.14079999999998,175.37961150429152)" d="M-4,-4h8v8h-8Z" fill="#ffedde" stroke-width="1.5" opacity="1"/></g></g><path class="foreground" aria-hidden="true" d="" display="none"/></g><g transform="translate(0,0)"><path class="background" aria-hidden="true" d="M0,0h583v312h-583Z"/><g><g class="mark-line role-mark layer_2_layer_0_marks" role="graphics-object" aria-roledescription="line mark container"><path aria-label="x_value: 3540000; score: 0.32; model: Gemini 3.1 Pro Preview; juice_index: 4; Model: Gemini 3.1 Pro Preview; Effort Level: Xhigh; Output tokens: 3.54M; Score: 32.1%" role="graphics-symbol" aria-roledescription="line mark" d="M82.553,274.039Z" stroke="#beeb96" stroke-width="2"/></g><g class="mark-symbol role-mark layer_2_layer_1_marks" role="graphics-object" aria-roledescription="symbol mark container"><path aria-label="x_value: 3540000; score: 0.32; model: Gemini 3.1 Pro Preview; juice_index: 4; Model: Gemini 3.1 Pro Preview; Effort Level: Xhigh; Output tokens: 3.54M; Score: 32.1%" role="graphics-symbol" aria-roledescription="point" transform="translate(82.5528,274.03945188977565)" d="M-4.743,0L0,-4.743L4.743,0L0,4.743Z" fill="#beeb96" stroke-width="1.5" opacity="1"/></g></g><path class="foreground" aria-hidden="true" d="" display="none"/></g><g transform="translate(0,0)"><path class="background" aria-hidden="true" d="M0,0h583v312h-583Z"/><g><g class="mark-line role-mark layer_2_layer_0_marks" role="graphics-object" aria-roledescription="line mark container"><path aria-label="x_value: 1230000; score: 0.38; model: GPT-5.5; juice_index: 1; Model: GPT-5.5; Effort Level: Low; Output tokens: 1.23M; Score: 37.5%" role="graphics-symbol" aria-roledescription="line mark" d="M28.684,210.615L59.466,164.809L69.727,123.701L148.548,100.21" stroke="#f5bacc" stroke-width="2"/></g><g class="mark-symbol role-mark layer_2_layer_1_marks" role="graphics-object" aria-roledescription="symbol mark container"><path aria-label="x_value: 1230000; score: 0.38; model: GPT-5.5; juice_index: 1; Model: GPT-5.5; Effort Level: Low; Output tokens: 1.23M; Score: 37.5%" role="graphics-symbol" aria-roledescription="point" transform="translate(28.683600000000002,210.61526878482158)" d="M4,0A4,4,0,1,1,-4,0A4,4,0,1,1,4,0" fill="#f5bacc" stroke-width="1.5" opacity="1"/><path aria-label="x_value: 2550000; score: 0.41; model: GPT-5.5; juice_index: 2; Model: GPT-5.5; Effort Level: Medium; Output tokens: 2.55M; Score: 41.4%" role="graphics-symbol" aria-roledescription="point" transform="translate(59.465999999999994,164.80891432013254)" d="M4,0A4,4,0,1,1,-4,0A4,4,0,1,1,4,0" fill="#f5bacc" stroke-width="1.5" opacity="1"/><path aria-label="x_value: 2990000; score: 0.45; model: GPT-5.5; juice_index: 3; Model: GPT-5.5; Effort Level: High; Output tokens: 2.99M; Score: 44.9%" role="graphics-symbol" aria-roledescription="point" transform="translate(69.7268,123.70064749284747)" d="M4,0A4,4,0,1,1,-4,0A4,4,0,1,1,4,0" fill="#f5bacc" stroke-width="1.5" opacity="1"/><path aria-label="x_value: 6370000; score: 0.47; model: GPT-5.5; juice_index: 4; Model: GPT-5.5; Effort Level: Xhigh; Output tokens: 6.37M; Score: 46.9%" role="graphics-symbol" aria-roledescription="point" transform="translate(148.54840000000002,100.21020930582748)" d="M4,0A4,4,0,1,1,-4,0A4,4,0,1,1,4,0" fill="#f5bacc" stroke-width="1.5" opacity="1"/></g></g><path class="foreground" aria-hidden="true" d="" display="none"/></g><g transform="translate(0,0)"><path class="background" aria-hidden="true" d="M0,0h583v312h-583Z"/><g><g class="mark-line role-mark layer_2_layer_0_marks" role="graphics-object" aria-roledescription="line mark container"><path aria-label="x_value: 1270000; score: 0.45; model: GPT-5.6 Sol; juice_index: 1; Model: GPT-5.6 Sol; Effort Level: Low; Output tokens: 1.27M; Score: 44.8%" role="graphics-symbol" aria-roledescription="line mark" d="M29.616,124.875L51.304,41.484L67.395,39.135L88.616,21.517L126.861,32.088" stroke="#eaf1fe" stroke-width="2"/></g><g class="mark-symbol role-mark layer_2_layer_1_marks" role="graphics-object" aria-roledescription="symbol mark container"><path aria-label="x_value: 1270000; score: 0.45; model: GPT-5.6 Sol; juice_index: 1; Model: GPT-5.6 Sol; Effort Level: Low; Output tokens: 1.27M; Score: 44.8%" role="graphics-symbol" aria-roledescription="point" transform="translate(29.6164,124.87516940219847)" d="M4,0A4,4,0,1,1,-4,0A4,4,0,1,1,4,0" fill="#eaf1fe" stroke-width="1.5" opacity="1"/><path aria-label="x_value: 2200000; score: 0.52; model: GPT-5.6 Sol; juice_index: 2; Model: GPT-5.6 Sol; Effort Level: Medium; Output tokens: 2.2M; Score: 51.9%" role="graphics-symbol" aria-roledescription="point" transform="translate(51.303999999999995,41.48411383827737)" d="M4,0A4,4,0,1,1,-4,0A4,4,0,1,1,4,0" fill="#eaf1fe" stroke-width="1.5" opacity="1"/><path aria-label="x_value: 2890000; score: 0.52; model: GPT-5.6 Sol; juice_index: 3; Model: GPT-5.6 Sol; Effort Level: High; Output tokens: 2.89M; Score: 52.1%" role="graphics-symbol" aria-roledescription="point" transform="translate(67.3948,39.13507001957538)" d="M4,0A4,4,0,1,1,-4,0A4,4,0,1,1,4,0" fill="#eaf1fe" stroke-width="1.5" opacity="1"/><path aria-label="x_value: 3800000; score: 0.54; model: GPT-5.6 Sol; juice_index: 4; Model: GPT-5.6 Sol; Effort Level: Xhigh; Output tokens: 3.8M; Score: 53.6%" role="graphics-symbol" aria-roledescription="point" transform="translate(88.616,21.517241379310352)" d="M4,0A4,4,0,1,1,-4,0A4,4,0,1,1,4,0" fill="#eaf1fe" stroke-width="1.5" opacity="1"/><path aria-label="x_value: 5440000; score: 0.53; model: GPT-5.6 Sol; juice_index: 5; Model: GPT-5.6 Sol; Effort Level: Max; Output tokens: 5.44M; Score: 52.7%" role="graphics-symbol" aria-roledescription="point" transform="translate(126.8608,32.08793856346938)" d="M4,0A4,4,0,1,1,-4,0A4,4,0,1,1,4,0" fill="#eaf1fe" stroke-width="1.5" opacity="1"/></g></g><path class="foreground" aria-hidden="true" d="" display="none"/></g><g transform="translate(0,0)"><path class="background" aria-hidden="true" d="M0,0h583v312h-583Z"/><g><g class="mark-line role-mark layer_2_layer_0_marks" role="graphics-object" aria-roledescription="line mark container"><path aria-label="x_value: 590000; score: 0.31; model: GPT-5.6 Luna; juice_index: 1; Model: GPT-5.6 Luna; Effort Level: Low; Output tokens: 590K; Score: 30.7%" role="graphics-symbol" aria-roledescription="line mark" d="M13.759,290.483L25.652,227.059L61.332,117.828L99.11,79.069L160.208,60.276" stroke="#5477c4" stroke-width="2"/></g><g class="mark-symbol role-mark layer_2_layer_1_marks" role="graphics-object" aria-roledescription="symbol mark container"><path aria-label="x_value: 590000; score: 0.31; model: GPT-5.6 Luna; juice_index: 1; Model: GPT-5.6 Luna; Effort Level: Low; Output tokens: 590K; Score: 30.7%" role="graphics-symbol" aria-roledescription="point" transform="translate(13.758799999999999,290.48275862068965)" d="M4,0A4,4,0,1,1,-4,0A4,4,0,1,1,4,0" fill="#5477c4" stroke-width="1.5" opacity="1"/><path aria-label="x_value: 1100000; score: 0.36; model: GPT-5.6 Luna; juice_index: 2; Model: GPT-5.6 Luna; Effort Level: Medium; Output tokens: 1.1M; Score: 36.1%" role="graphics-symbol" aria-roledescription="point" transform="translate(25.651999999999997,227.05857551573558)" d="M4,0A4,4,0,1,1,-4,0A4,4,0,1,1,4,0" fill="#5477c4" stroke-width="1.5" opacity="1"/><path aria-label="x_value: 2630000; score: 0.45; model: GPT-5.6 Luna; juice_index: 3; Model: GPT-5.6 Luna; Effort Level: High; Output tokens: 2.63M; Score: 45.4%" role="graphics-symbol" aria-roledescription="point" transform="translate(61.3316,117.82803794609246)" d="M4,0A4,4,0,1,1,-4,0A4,4,0,1,1,4,0" fill="#5477c4" stroke-width="1.5" opacity="1"/><path aria-label="x_value: 4250000; score: 0.49; model: GPT-5.6 Luna; juice_index: 4; Model: GPT-5.6 Luna; Effort Level: Xhigh; Output tokens: 4.25M; Score: 48.7%" role="graphics-symbol" aria-roledescription="point" transform="translate(99.11000000000001,79.06881493750946)" d="M4,0A4,4,0,1,1,-4,0A4,4,0,1,1,4,0" fill="#5477c4" stroke-width="1.5" opacity="1"/><path aria-label="x_value: 6870000; score: 0.5; model: GPT-5.6 Luna; juice_index: 5; Model: GPT-5.6 Luna; Effort Level: Max; Output tokens: 6.87M; Score: 50.3%" role="graphics-symbol" aria-roledescription="point" transform="translate(160.20839999999998,60.276464387893434)" d="M4,0A4,4,0,1,1,-4,0A4,4,0,1,1,4,0" fill="#5477c4" stroke-width="1.5" opacity="1"/></g></g><path class="foreground" aria-hidden="true" d="" display="none"/></g><g transform="translate(0,0)"><path class="background" aria-hidden="true" d="M0,0h583v312h-583Z"/><g><g class="mark-line role-mark layer_2_layer_0_marks" role="graphics-object" aria-roledescription="line mark container"><path aria-label="x_value: 1120000; score: 0.4; model: GPT-5.6 Terra; juice_index: 1; Model: GPT-5.6 Terra; Effort Level: Low; Output tokens: 1.12M; Score: 40.3%" role="graphics-symbol" aria-roledescription="line mark" d="M26.118,177.729L36.612,150.715L65.063,107.257L89.082,81.418L134.79,59.102" stroke="#a3befa" stroke-width="2"/></g><g class="mark-symbol role-mark layer_2_layer_1_marks" role="graphics-object" aria-roledescription="symbol mark container"><path aria-label="x_value: 1120000; score: 0.4; model: GPT-5.6 Terra; juice_index: 1; Model: GPT-5.6 Terra; Effort Level: Low; Output tokens: 1.12M; Score: 40.3%" role="graphics-symbol" aria-roledescription="point" transform="translate(26.1184,177.72865532299352)" d="M4,0A4,4,0,1,1,-4,0A4,4,0,1,1,4,0" fill="#a3befa" stroke-width="1.5" opacity="1"/><path aria-label="x_value: 1570000; score: 0.43; model: GPT-5.6 Terra; juice_index: 2; Model: GPT-5.6 Terra; Effort Level: Medium; Output tokens: 1.57M; Score: 42.6%" role="graphics-symbol" aria-roledescription="point" transform="translate(36.612399999999994,150.7146514079205)" d="M4,0A4,4,0,1,1,-4,0A4,4,0,1,1,4,0" fill="#a3befa" stroke-width="1.5" opacity="1"/><path aria-label="x_value: 2790000; score: 0.46; model: GPT-5.6 Terra; juice_index: 3; Model: GPT-5.6 Terra; Effort Level: High; Output tokens: 2.79M; Score: 46.3%" role="graphics-symbol" aria-roledescription="point" transform="translate(65.0628,107.25734076193345)" d="M4,0A4,4,0,1,1,-4,0A4,4,0,1,1,4,0" fill="#a3befa" stroke-width="1.5" opacity="1"/><path aria-label="x_value: 3820000; score: 0.48; model: GPT-5.6 Terra; juice_index: 4; Model: GPT-5.6 Terra; Effort Level: Xhigh; Output tokens: 3.82M; Score: 48.5%" role="graphics-symbol" aria-roledescription="point" transform="translate(89.08239999999999,81.41785875621146)" d="M4,0A4,4,0,1,1,-4,0A4,4,0,1,1,4,0" fill="#a3befa" stroke-width="1.5" opacity="1"/><path aria-label="x_value: 5780000; score: 0.5; model: GPT-5.6 Terra; juice_index: 5; Model: GPT-5.6 Terra; Effort Level: Max; Output tokens: 5.78M; Score: 50.4%" role="graphics-symbol" aria-roledescription="point" transform="translate(134.7896,59.1019424785424)" d="M4,0A4,4,0,1,1,-4,0A4,4,0,1,1,4,0" fill="#a3befa" stroke-width="1.5" opacity="1"/></g></g><path class="foreground" aria-hidden="true" d="" display="none"/></g><g transform="translate(0,0)"><path class="background" aria-hidden="true" d="M0,0h583v312h-583Z"/><g><g class="mark-line role-mark layer_2_layer_0_marks" role="graphics-object" aria-roledescription="line mark container"><path aria-label="x_value: 3950000; score: 0.37; model: Claude Opus 4.8; juice_index: 1; Model: Claude Opus 4.8; Effort Level: Low; Output tokens: 3.95M; Score: 37.4%" role="graphics-symbol" aria-roledescription="line mark" d="M92.114,211.79L127.56,207.092L149.948,196.521L385.013,154.238L514.672,120.177" stroke="#ff9365" stroke-width="2"/></g><g class="mark-symbol role-mark layer_2_layer_1_marks" role="graphics-object" aria-roledescription="symbol mark container"><path aria-label="x_value: 3950000; score: 0.37; model: Claude Opus 4.8; juice_index: 1; Model: Claude Opus 4.8; Effort Level: Low; Output tokens: 3.95M; Score: 37.4%" role="graphics-symbol" aria-roledescription="point" transform="translate(92.114,211.78979069417255)" d="M-4,-4h8v8h-8Z" fill="#ff9365" stroke-width="1.5" opacity="1"/><path aria-label="x_value: 5470000; score: 0.38; model: Claude Opus 4.8; juice_index: 2; Model: Claude Opus 4.8; Effort Level: Medium; Output tokens: 5.47M; Score: 37.8%" role="graphics-symbol" aria-roledescription="point" transform="translate(127.5604,207.09170305676855)" d="M-4,-4h8v8h-8Z" fill="#ff9365" stroke-width="1.5" opacity="1"/><path aria-label="x_value: 6430000; score: 0.39; model: Claude Opus 4.8; juice_index: 3; Model: Claude Opus 4.8; Effort Level: High; Output tokens: 6.43M; Score: 38.7%" role="graphics-symbol" aria-roledescription="point" transform="translate(149.9476,196.52100587260952)" d="M-4,-4h8v8h-8Z" fill="#ff9365" stroke-width="1.5" opacity="1"/><path aria-label="x_value: 16510000; score: 0.42; model: Claude Opus 4.8; juice_index: 4; Model: Claude Opus 4.8; Effort Level: Xhigh; Output tokens: 16.51M; Score: 42.3%" role="graphics-symbol" aria-roledescription="point" transform="translate(385.0132,154.2382171359735)" d="M-4,-4h8v8h-8Z" fill="#ff9365" stroke-width="1.5" opacity="1"/><path aria-label="x_value: 22070000; score: 0.45; model: Claude Opus 4.8; juice_index: 5; Model: Claude Opus 4.8; Effort Level: Max; Output tokens: 22.07M; Score: 45.2%" role="graphics-symbol" aria-roledescription="point" transform="translate(514.6724,120.17708176479447)" d="M-4,-4h8v8h-8Z" fill="#ff9365" stroke-width="1.5" opacity="1"/></g></g><path class="foreground" aria-hidden="true" d="" display="none"/></g></g><g class="mark-text role-mark layer_3_marks" role="graphics-object" aria-roledescription="text mark container"><text aria-label="axis_title_x: 12500000; axis_title_y: 0.29; axis_title: Output tokens" role="graphics-symbol" aria-roledescription="text mark" text-anchor="middle" transform="translate(291.5,357)" font-family="OpenAI Sans, OpenAI Sans Variable Scripts, sans-serif" font-size="14px" fill="#fff">Output tokens</text></g><g class="mark-group role-legend" role="graphics-symbol" aria-roledescription="legend" aria-label="Symbol legend for shape, fill color and stroke color with 7 values: GPT-5.6 Sol, GPT-5.6 Terra, GPT-5.6 Luna, GPT-5.5, Claude Fable 5, Claude Opus 4.8, Gemini 3.1 Pro Preview"><g transform="translate(0,-80)"><path class="background" aria-hidden="true" d="M0,0h296v62h-296Z" pointer-events="none" stroke-width="1"/><g><g class="mark-group role-legend-entry"><g transform="translate(0,0)"><path class="background" aria-hidden="true" d="M0,0h0v0h0Z" pointer-events="none"/><g><g class="mark-group role-scope" role="graphics-object" aria-roledescription="group mark container"><g transform="translate(0,0)"><path class="background" aria-hidden="true" d="M0,0h161.9058380126953v14h-161.9058380126953Z" pointer-events="none" opacity="1"/><g><g class="mark-symbol role-legend-symbol" pointer-events="none"><path transform="translate(7,7)" d="M5,0A5,5,0,1,1,-5,0A5,5,0,1,1,5,0" fill="#eaf1fe" stroke="#eaf1fe" stroke-width="1.5" opacity="1"/></g><g class="mark-text role-legend-label" pointer-events="none"><text text-anchor="start" transform="translate(18,11)" font-family="OpenAI Sans, OpenAI Sans Variable Scripts, sans-serif" font-size="14px" font-weight="normal" fill="#fff" opacity="1">GPT-5.6 Sol</text></g></g><path class="foreground" aria-hidden="true" d="" pointer-events="none" display="none"/></g><g transform="translate(172,0)"><path class="background" aria-hidden="true" d="M0,0h123.90985107421875v14h-123.90985107421875Z" pointer-events="none" opacity="1"/><g><g class="mark-symbol role-legend-symbol" pointer-events="none"><path transform="translate(7,7)" d="M5,0A5,5,0,1,1,-5,0A5,5,0,1,1,5,0" fill="#a3befa" stroke="#a3befa" stroke-width="1.5" opacity="1"/></g><g class="mark-text role-legend-label" pointer-events="none"><text text-anchor="start" transform="translate(18,11)" font-family="OpenAI Sans, OpenAI Sans Variable Scripts, sans-serif" font-size="14px" font-weight="normal" fill="#fff" opacity="1">GPT-5.6 Terra</text></g></g><path class="foreground" aria-hidden="true" d="" pointer-events="none" display="none"/></g><g transform="translate(0,16)"><path class="background" aria-hidden="true" d="M0,0h161.9058380126953v14h-161.9058380126953Z" pointer-events="none" opacity="1"/><g><g class="mark-symbol role-legend-symbol" pointer-events="none"><path transform="translate(7,7)" d="M5,0A5,5,0,1,1,-5,0A5,5,0,1,1,5,0" fill="#5477c4" stroke="#5477c4" stroke-width="1.5" opacity="1"/></g><g class="mark-text role-legend-label" pointer-events="none"><text text-anchor="start" transform="translate(18,11)" font-family="OpenAI Sans, OpenAI Sans Variable Scripts, sans-serif" font-size="14px" font-weight="normal" fill="#fff" opacity="1">GPT-5.6 Luna</text></g></g><path class="foreground" aria-hidden="true" d="" pointer-events="none" display="none"/></g><g transform="translate(172,16)"><path class="background" aria-hidden="true" d="M0,0h123.90985107421875v14h-123.90985107421875Z" pointer-events="none" opacity="1"/><g><g class="mark-symbol role-legend-symbol" pointer-events="none"><path transform="translate(7,7)" d="M5,0A5,5,0,1,1,-5,0A5,5,0,1,1,5,0" fill="#f5bacc" stroke="#f5bacc" stroke-width="1.5" opacity="1"/></g><g class="mark-text role-legend-label" pointer-events="none"><text text-anchor="start" transform="translate(18,11)" font-family="OpenAI Sans, OpenAI Sans Variable Scripts, sans-serif" font-size="14px" font-weight="normal" fill="#fff" opacity="1">GPT-5.5</text></g></g><path class="foreground" aria-hidden="true" d="" pointer-events="none" display="none"/></g><g transform="translate(0,32)"><path class="background" aria-hidden="true" d="M0,0h161.9058380126953v14h-161.9058380126953Z" pointer-events="none" opacity="1"/><g><g class="mark-symbol role-legend-symbol" pointer-events="none"><path transform="translate(7,7)" d="M-5,-5h10v10h-10Z" fill="#ffedde" stroke="#ffedde" stroke-width="1.5" opacity="1"/></g><g class="mark-text role-legend-label" pointer-events="none"><text text-anchor="start" transform="translate(18,11)" font-family="OpenAI Sans, OpenAI Sans Variable Scripts, sans-serif" font-size="14px" font-weight="normal" fill="#fff" opacity="1">Claude Fable 5</text></g></g><path class="foreground" aria-hidden="true" d="" pointer-events="none" display="none"/></g><g transform="translate(172,32)"><path class="background" aria-hidden="true" d="M0,0h123.90985107421875v14h-123.90985107421875Z" pointer-events="none" opacity="1"/><g><g class="mark-symbol role-legend-symbol" pointer-events="none"><path transform="translate(7,7)" d="M-5,-5h10v10h-10Z" fill="#ff9365" stroke="#ff9365" stroke-width="1.5" opacity="1"/></g><g class="mark-text role-legend-label" pointer-events="none"><text text-anchor="start" transform="translate(18,11)" font-family="OpenAI Sans, OpenAI Sans Variable Scripts, sans-serif" font-size="14px" font-weight="normal" fill="#fff" opacity="1">Claude Opus 4.8</text></g></g><path class="foreground" aria-hidden="true" d="" pointer-events="none" display="none"/></g><g transform="translate(0,48)"><path class="background" aria-hidden="true" d="M0,0h161.9058380126953v14h-161.9058380126953Z" pointer-events="none" opacity="1"/><g><g class="mark-symbol role-legend-symbol" pointer-events="none"><path transform="translate(7,7)" d="M-5,0L0,-5L5,0L0,5Z" fill="#beeb96" stroke="#beeb96" stroke-width="1.5" opacity="1"/></g><g class="mark-text role-legend-label" pointer-events="none"><text text-anchor="start" transform="translate(18,11)" font-family="OpenAI Sans, OpenAI Sans Variable Scripts, sans-serif" font-size="14px" font-weight="normal" fill="#fff" opacity="1">Gemini 3.1 Pro Preview</text></g></g><path class="foreground" aria-hidden="true" d="" pointer-events="none" display="none"/></g></g></g><path class="foreground" aria-hidden="true" d="" pointer-events="none" display="none"/></g></g></g><path class="foreground" aria-hidden="true" d="" pointer-events="none" display="none"/></g></g></g><path class="foreground" aria-hidden="true" d="" display="none"/></g></g></g></g></svg>